<svg xmlns="http://www.w3.org/2000/svg" xmlns:xlink="http://www.w3.org/1999/xlink" viewBox="0,0,256,256" width="50px" height="50px" fill-rule="nonzero"><g fill="#ffd700" fill-rule="nonzero" stroke="none" stroke-width="1" stroke-linecap="butt" stroke-linejoin="miter" stroke-miterlimit="10" stroke-dasharray="" stroke-dashoffset="0" font-family="none" font-weight="none" font-size="none" text-anchor="none" style="mix-blend-mode: normal"><g transform="scale(5.12,5.12)"><path d="M18.56445,2c-6.92737,0 -12.56445,5.63708 -12.56445,12.56445v1.7168c-0.59274,0.34965 -1,0.98993 -1,1.71875v9v0.19922c-1.23705,1.03709 -2,2.55769 -2,4.2832c0,1.60197 0.63871,3.05982 1.68164,4.07813l2.68359,2.80273c-0.55599,0.94713 -0.59378,2.17231 0.05664,3.15625l1.23438,1.86719c0.0019,0.0031 0.00396,0.00471 0.00586,0.00781c1.10018,1.77662 2.28626,2.96632 3.68359,3.66797c1.39975,0.70286 2.93731,0.89258 4.67578,0.89258h2.70117c1.79483,0.00001 3.27734,-1.46828 3.27734,-3.26172c0.0001,-0.05959 -0.00513,-0.11907 -0.01562,-0.17773c0.01085,-0.06059 0.01608,-0.12205 0.01563,-0.18359v0.36133v1.30664c-0.0051,0.36064 0.18438,0.69608 0.49587,0.87789c0.3115,0.18181 0.69676,0.18181 1.00825,0c0.3115,-0.18181 0.50097,-0.51725 0.49587,-0.87789c-0.0051,0.36064 0.18438,0.69608 0.49587,0.87789c0.3115,0.18181 0.69676,0.18181 1.00825,0c0.3115,-0.18181 0.50097,-0.51725 0.49587,-0.87789v-1.28711c0.011,1.78431 1.48726,3.24219 3.27539,3.24219h2.70117c1.73847,0 3.27603,-0.18972 4.67578,-0.89258c1.39734,-0.70165 2.58341,-1.89135 3.68359,-3.66797l1.24023,-1.875c0.64911,-0.98344 0.61136,-2.20801 0.05664,-3.1543l2.68555,-2.80664c1.04294,-1.01831 1.68164,-2.47616 1.68164,-4.07812c0,-1.72552 -0.76295,-3.24612 -2,-4.2832v-2.19727v-7c0,-0.72882 -0.40726,-1.3691 -1,-1.71875v-1.7168c0,-6.92737 -5.63708,-12.56445 -12.56445,-12.56445h-7.43555zM18.56445,4h5.43555h7.43555c4.96014,0 9.09453,3.40027 10.23828,8h-33.34766c1.14375,-4.59973 5.27814,-8 10.23828,-8zM8.0293,14h33.94141c0.00991,0.18811 0.0293,0.37382 0.0293,0.56445v1.43555h-17h-17v-1.43555c0,-0.19064 0.01939,-0.37634 0.0293,-0.56445zM7,18h1h17h18v9v0.52344c-0.00019,0.351 0.18364,0.67642 0.48438,0.85742c0.93669,0.56304 1.51563,1.67691 1.51563,3.09961c0,1.07003 -0.42706,2.01274 -1.07812,2.64844c-0.00794,0.00768 -0.01575,0.0155 -0.02344,0.02344l-2.75,2.87305l-11.75195,-9.39062c-1.2197,-0.97439 -2.73311,-1.62759 -4.36328,-1.63477h-0.00195h-0.03125h-0.03125h-0.00195c-1.62921,0.0084 -3.14574,0.65963 -4.36523,1.63477l-11.75,9.39063l-2.75,-2.87305c-0.00768,-0.00794 -0.0155,-0.01576 -0.02344,-0.02344c-0.65107,-0.63569 -1.07812,-1.57645 -1.07812,-2.64648c0,-1.4227 0.57893,-2.53657 1.51563,-3.09961c0.30074,-0.181 0.48457,-0.50642 0.48438,-0.85742v-2.52539zM9.93945,20c-0.745,0 -1.2117,0.80603 -0.8457,1.45703l2.70313,5.04688c0.261,0.464 0.84355,0.63195 1.31055,0.37695l8.36328,-5.04687c0.886,-0.483 0.54316,-1.83398 -0.46484,-1.83398zM28.9668,20c-1.008,0 -1.34889,1.35098 -0.46289,1.83398l8.36133,5.04688c0.466,0.255 1.04955,0.08705 1.31055,-0.37695l2.70508,-5.04687c0.366,-0.651 -0.10366,-1.45703 -0.84766,-1.45703zM24.9707,28h0.0293h0.0293c1.09457,0.0058 2.19191,0.45651 3.11914,1.19727l5.2832,4.22266l-1.76367,-0.83789l-3.42383,-1.625c-1.01317,-0.48064 -2.12272,-0.73047 -3.24609,-0.73047c-1.12269,0 -2.22961,0.24857 -3.24414,0.73047l-5.18164,2.45898l5.2793,-4.21875c0.9249,-0.73958 2.02423,-1.1901 3.11914,-1.19727zM8.33398,29.13672c-0.2598,0.00774 -0.50638,0.11632 -0.6875,0.30273l-0.70703,0.70703c-0.26123,0.25082 -0.36646,0.62326 -0.2751,0.9737c0.09136,0.35044 0.36503,0.6241 0.71546,0.71546c0.35044,0.09136 0.72288,-0.01387 0.9737,-0.2751l0.70703,-0.70703c0.29576,-0.28749 0.38469,-0.72707 0.22393,-1.10691c-0.16075,-0.37985 -0.53821,-0.62204 -0.9505,-0.60988zM41.63477,29.13672c-0.40657,0.0009 -0.77213,0.24784 -0.92475,0.62467c-0.15262,0.37684 -0.06192,0.80856 0.22944,1.09212l0.70703,0.70703c0.25082,0.26123 0.62326,0.36645 0.9737,0.27509c0.35043,-0.09136 0.6241,-0.36502 0.71546,-0.71546c0.09136,-0.35043 -0.01386,-0.72288 -0.27509,-0.9737l-0.70703,-0.70703c-0.18874,-0.19402 -0.44807,-0.30325 -0.71875,-0.30273zM10.33398,31.13672c-0.2598,0.00774 -0.50638,0.11632 -0.6875,0.30273l-0.70703,0.70703c-0.26123,0.25082 -0.36645,0.62326 -0.27509,0.9737c0.09136,0.35043 0.36502,0.6241 0.71546,0.71546c0.35043,0.09136 0.72288,-0.01387 0.9737,-0.27509l0.70703,-0.70703c0.29576,-0.28749 0.38469,-0.72707 0.22393,-1.10691c-0.16075,-0.37985 -0.53821,-0.62204 -0.9505,-0.60988zM39.63477,31.13672c-0.40657,0.0009 -0.77213,0.24784 -0.92475,0.62467c-0.15262,0.37684 -0.06192,0.80856 0.22944,1.09212l0.70703,0.70703c0.25082,0.26123 0.62326,0.36645 0.9737,0.27509c0.35043,-0.09136 0.6241,-0.36502 0.71546,-0.71546c0.09136,-0.35043 -0.01386,-0.72288 -0.27509,-0.9737l-0.70703,-0.70703c-0.18874,-0.19402 -0.44807,-0.30325 -0.71875,-0.30273zM24.99805,32.22656c0.82662,0 1.64383,0.18376 2.38867,0.53711l3.42383,1.625l9.69336,4.60156c0.56422,0.26792 0.74367,0.91357 0.4043,1.42773l-1.25977,1.90234l-0.00781,0.01367c-0.97722,1.58028 -1.88172,2.43677 -2.88672,2.94141c-0.14385,0.07223 -0.30139,0.12246 -0.45312,0.18164c0.42282,-0.73861 0.68359,-1.58508 0.68359,-2.49414c0,-2.73275 -2.1889,-4.99414 -4.89258,-4.99414h-2.12305c-0.55585,0 -0.98437,-0.42852 -0.98437,-0.98437c0,-1.63615 -1.34823,-2.98437 -2.98437,-2.98437h-2.01562c-1.63615,0 -2.98437,1.34823 -2.98437,2.98438c0,0.55585 -0.42852,0.98438 -0.98437,0.98438h-2.12305c-2.70442,0 -4.89258,2.2617 -4.89258,4.99414c0,0.90666 0.25893,1.75105 0.67969,2.48828c-0.14568,-0.0574 -0.29715,-0.10629 -0.43555,-0.17578c-1.005,-0.50464 -1.9095,-1.36113 -2.88672,-2.94141l-0.00781,-0.01367l-1.25977,-1.9043c-0.34,-0.51432 -0.16107,-1.15757 0.4043,-1.42578l0.18555,-0.08789l0.00977,0.01367l0.05664,-0.04492l12.86523,-6.10742c0.74547,-0.3541 1.55941,-0.53711 2.38672,-0.53711zM23.98438,36h2.01563c0.55585,0 0.98438,0.42852 0.98438,0.98438c0,1.63615 1.34823,2.98438 2.98438,2.98438h2.12305c1.59432,0 2.89258,1.31489 2.89258,2.99414c0,1.67956 -1.297,2.99219 -2.89258,2.99219h-1.81641c-0.72117,0 -1.27734,-0.55715 -1.27734,-1.26172c0.0004,-0.05758 -0.00418,-0.11508 -0.01367,-0.17187c0.01121,-0.06251 0.01644,-0.12595 0.01563,-0.18945v-2.66406c0.0051,-0.36064 -0.18438,-0.69608 -0.49587,-0.87789c-0.3115,-0.18181 -0.69676,-0.18181 -1.00825,0c-0.3115,0.18181 -0.50097,0.51725 -0.49587,0.87789v-1.66797c0.0051,-0.36064 -0.18438,-0.69608 -0.49587,-0.87789c-0.3115,-0.18181 -0.69676,-0.18181 -1.00825,0c-0.3115,0.18181 -0.50097,0.51725 -0.49587,0.87789c0.0037,-0.2703 -0.10218,-0.53059 -0.29351,-0.72155c-0.19133,-0.19097 -0.45182,-0.29634 -0.72212,-0.29212c-0.55152,0.00862 -0.99193,0.46214 -0.98437,1.01367v1.66797c0.00423,-0.27064 -0.10141,-0.53143 -0.2928,-0.72282c-0.19139,-0.19139 -0.45219,-0.29703 -0.72282,-0.2928c-0.26522,0.00414 -0.51793,0.11347 -0.70254,0.30394c-0.18461,0.19047 -0.28599,0.44647 -0.28184,0.71169v2.66406c-0.0001,0.05959 0.00513,0.11907 0.01563,0.17773c-0.01085,0.06059 -0.01608,0.12204 -0.01562,0.18359c0,0.70457 -0.55617,1.26172 -1.27734,1.26172h-1.83008c-1.59432,0 -2.89258,-1.31293 -2.89258,-2.99219c0,-1.67956 1.297,-2.99414 2.89258,-2.99414h2.12305c1.63615,0 2.98438,-1.34823 2.98438,-2.98437c0,-0.55585 0.42852,-0.98437 0.98438,-0.98437zM18.05273,41.52148c-0.82843,0 -1.5,0.67157 -1.5,1.5c0,0.82843 0.67157,1.5 1.5,1.5c0.82843,0 1.5,-0.67157 1.5,-1.5c0,-0.82843 -0.67157,-1.5 -1.5,-1.5zM31.93164,41.52148c-0.82843,0 -1.5,0.67157 -1.5,1.5c0,0.82843 0.67157,1.5 1.5,1.5c0.82843,0 1.5,-0.67157 1.5,-1.5c0,-0.82843 -0.67157,-1.5 -1.5,-1.5zM27,44.33203c-0.0004,0.05758 0.00418,0.11508 0.01367,0.17188c-0.00694,0.0394 -0.0115,0.07919 -0.01367,0.11914z"></path></g></g></svg>